<?xml version="1.0" encoding="UTF-8"?>
<svg id="Layer_2" data-name="Layer 2" xmlns="http://www.w3.org/2000/svg" viewBox="0 0 402.61 508">
  <defs>
    <style>
      .cls-1 {
        fill: #d770af;
      }
    </style>
  </defs>
  <g id="Capa_1" data-name="Capa 1">
    <g>
      <path class="cls-1" d="M397.11,85.61c3.04,0,5.5-2.46,5.5-5.5V15.5c0-8.55-6.95-15.5-15.5-15.5H15.5C6.95,0,0,6.95,0,15.5v397.78s0,.02,0,.03,0,.02,0,.03v79.17c0,8.55,6.95,15.5,15.5,15.5h116.23c3.04,0,5.5-2.46,5.5-5.5s-2.46-5.5-5.5-5.5H15.5c-2.48,0-4.5-2.02-4.5-4.5v-73.69h234.83s.05,0,.08,0,.05,0,.08,0h145.61v73.69c0,2.48-2.02,4.5-4.5,4.5h-221.38c-3.04,0-5.5,2.46-5.5,5.5s2.46,5.5,5.5,5.5h221.38c8.55,0,15.5-6.95,15.5-15.5V114.11c0-3.04-2.46-5.5-5.5-5.5s-5.5,2.46-5.5,5.5v293.69h-140.19v-102.75c26.03-28.43,39.8-63.1,46.79-87.39.84-2.92-.85-5.97-3.77-6.81-2.92-.84-5.97.85-6.81,3.77-6.79,23.59-20.23,57.4-45.72,84.52-.05.06-.09.13-.14.19-.07.08-.16.16-.22.25-.06.08-6.25,7.95-20.34,13.52-13.15,5.2-36.05,9.42-70.54-.02-18.7-5.12-33.83-16.52-43.54-32.52,6.38-.61,12.11-3.94,16.61-9.15,5.8,9.33,15.57,18.86,31.95,23.35,12.03,3.29,23.28,4.96,33.42,4.96,1.98,0,4.01-.07,6.04-.2,18.45-1.29,32.63-16.85,32.27-35.41-.12-6.22-.25-13.06-.38-20.34-.05-3.04-2.57-5.44-5.6-5.4-3.04.05-5.46,2.56-5.4,5.6.13,7.28.26,14.14.38,20.36.24,12.7-9.44,23.34-22.03,24.23-1.77.12-3.55.18-5.29.18-9.16,0-19.43-1.54-30.51-4.57-13.28-3.64-22.79-11.64-28.31-23.78,2.17-5.52,3.4-11.88,3.4-18.69,0-8.78-2.04-16.8-5.51-23.25,3.64-11.54,10.7-21.66,20.07-28.65,9.3-6.95,18.07-14.09,26.3-21.38l9.57,9.57c1.07,1.07,2.48,1.61,3.89,1.61s2.81-.54,3.89-1.61c2.15-2.15,2.15-5.63,0-7.78l-9.22-9.22c11.97-11.27,22.66-22.88,31.94-34.76.09,23.73.39,52.65.87,83.75.05,3.04,2.56,5.46,5.58,5.41,3.04-.05,5.46-2.55,5.41-5.58-.49-31.7-.79-61.12-.87-85.08-.02-4.55-2.81-8.44-7.12-9.9-4.31-1.46-8.9-.08-11.7,3.53-9.2,11.9-19.88,23.55-31.91,34.85l-13.9-13.9c29.43-29.25,45.55-58.61,54.25-80.21,8.93-22.16,11.69-39.67,12.54-48.08h159.32c2.48,0,4.5,2.02,4.5,4.5v64.61c0,3.04,2.46,5.5,5.5,5.5ZM104.98,269.67c-4.85,0-9.59-3.36-13-9.21-3.9-6.69-11-10.85-18.54-10.85h-.31c-4.38,0-7.94-3.56-7.94-7.94s3.56-7.94,7.94-7.94h.31c7.54,0,14.65-4.16,18.54-10.85,3.41-5.86,8.15-9.21,13-9.21,9.59,0,17.7,12.82,17.7,28s-8.1,28-17.7,28ZM166.74,160.59c-7.86,6.94-16.22,13.73-25.09,20.36-9.35,6.98-16.76,16.53-21.48,27.47-4.38-3.65-9.58-5.75-15.2-5.75-1.02,0-2.02.08-3.02.22,5.96-14.82,15.75-27.75,28.32-37.15,8.29-6.19,15.84-12.5,22.76-18.85l13.71,13.71ZM153.22,131.52l-16.65-16.65c2.03-1.12,3.96-2.46,5.71-4.01,11.92-10.57,13.99-28.98,4.72-41.9-6.3-8.77-16.3-13.61-26.98-13.15l3.99-9.07c1.22-2.78-.04-6.03-2.82-7.25-2.78-1.22-6.03.04-7.25,2.82l-3.67,8.33c-2.07-2.27-4.59-4.12-7.42-5.43-9.5-4.39-20.75-1.8-27.35,6.31-2.76,3.39-4.5,7.43-5.04,11.7-4.07,1.38-7.76,3.54-10.99,6.43-12.57,11.26-14.02,30.99-3.22,43.98,5.98,7.2,14.85,11.35,24.12,11.46l-4.76,10.79c-1.23,2.78.03,6.03,2.81,7.25.72.32,1.48.47,2.22.47,2.11,0,4.13-1.22,5.04-3.28l4.83-10.94c1.66,1.52,3.54,2.79,5.62,3.79,3.16,1.51,6.52,2.24,9.85,2.24,7.06,0,13.98-3.26,18.42-9.21,1.18-1.58,2.12-3.28,2.85-5.07l18,18c-6.57,6.01-13.73,11.97-21.56,17.82-17.33,12.96-29.97,31.83-35.74,53.26-2.03,2.02-3.87,4.42-5.48,7.16-1.96,3.37-5.34,5.39-9.04,5.39h-.31c-10.44,0-18.94,8.5-18.94,18.94s8.5,18.94,18.94,18.94h.31c3.7,0,7.07,2.01,9.04,5.39,2.81,4.83,6.37,8.58,10.37,11.09,10.56,23.26,29.99,39.78,54.91,46.6,49.96,13.68,78.91,1.32,92.65-8.43v92.55H11V15.5c0-2.48,2.02-4.5,4.5-4.5h201.19c-1.96,16.91-12.09,69.48-63.47,120.52ZM83.6,113.98c-.42,0-.85.02-1.27.05-6.72.51-13.3-2.27-17.6-7.44-7.06-8.49-6.11-21.39,2.1-28.76,2.19-1.96,4.7-3.41,7.47-4.3,3.84-1.24,6.62-4.69,7.07-8.77.25-2.29,1.18-4.47,2.67-6.3,3.37-4.14,9.35-5.52,14.21-3.27,2.01.93,3.65,2.3,4.88,4.07,1.62,2.34,3.77,4.2,6.22,5.51.19.11.38.22.59.31.03.01.06.02.09.04,2.9,1.39,6.18,2.03,9.52,1.73,7.3-.64,14.23,2.55,18.51,8.52,6.03,8.4,4.68,20.38-3.08,27.26-2.68,2.38-5.94,4.02-9.42,4.74-3.92.81-7,3.81-7.86,7.65-.37,1.65-1.08,3.2-2.12,4.58-3.35,4.49-9.66,6.05-14.7,3.64-1.51-.72-2.82-1.71-3.9-2.93-3.56-4.06-8.39-6.32-13.4-6.32Z"/>
      <path class="cls-1" d="M276.9,477.25h45.17c3.04,0,5.5-2.46,5.5-5.5s-2.46-5.5-5.5-5.5h-45.17c-3.04,0-5.5,2.46-5.5,5.5s2.46,5.5,5.5,5.5Z"/>
      <path class="cls-1" d="M242.22,477.25h3.69c3.04,0,5.5-2.46,5.5-5.5s-2.46-5.5-5.5-5.5h-3.69c-3.04,0-5.5,2.46-5.5,5.5s2.46,5.5,5.5,5.5Z"/>
      <path class="cls-1" d="M105.36,444.21c0-3.04-2.46-5.5-5.5-5.5h-19.33c-3.04,0-5.5,2.46-5.5,5.5s2.46,5.5,5.5,5.5h19.33c3.04,0,5.5-2.46,5.5-5.5Z"/>
      <path class="cls-1" d="M205.89,471.75c0-3.04-2.46-5.5-5.5-5.5h-85.17c-3.04,0-5.5,2.46-5.5,5.5s2.46,5.5,5.5,5.5h85.17c3.04,0,5.5-2.46,5.5-5.5Z"/>
      <path class="cls-1" d="M80.53,466.25c-3.04,0-5.5,2.46-5.5,5.5s2.46,5.5,5.5,5.5h3.69c3.04,0,5.5-2.46,5.5-5.5s-2.46-5.5-5.5-5.5h-3.69Z"/>
      <path class="cls-1" d="M276.9,449.71h45.17c3.04,0,5.5-2.46,5.5-5.5s-2.46-5.5-5.5-5.5h-45.17c-3.04,0-5.5,2.46-5.5,5.5s2.46,5.5,5.5,5.5Z"/>
      <path class="cls-1" d="M242.22,449.71h3.69c3.04,0,5.5-2.46,5.5-5.5s-2.46-5.5-5.5-5.5h-3.69c-3.04,0-5.5,2.46-5.5,5.5s2.46,5.5,5.5,5.5Z"/>
      <path class="cls-1" d="M283.26,34.73c-3.04,0-5.5,2.46-5.5,5.5s2.46,5.5,5.5,5.5h18.03c3.04,0,5.5-2.46,5.5-5.5s-2.46-5.5-5.5-5.5h-18.03Z"/>
      <path class="cls-1" d="M341.87,34.73c-3.04,0-5.5,2.46-5.5,5.5s2.46,5.5,5.5,5.5h18.03c3.04,0,5.5-2.46,5.5-5.5s-2.46-5.5-5.5-5.5h-18.03Z"/>
      <path class="cls-1" d="M46.71,327.9h28.03c3.04,0,5.5-2.46,5.5-5.5s-2.46-5.5-5.5-5.5h-28.03c-3.04,0-5.5,2.46-5.5,5.5s2.46,5.5,5.5,5.5Z"/>
      <path class="cls-1" d="M46.71,354.96h51.22c3.04,0,5.5-2.46,5.5-5.5s-2.46-5.5-5.5-5.5h-51.22c-3.04,0-5.5,2.46-5.5,5.5s2.46,5.5,5.5,5.5Z"/>
      <path class="cls-1" d="M46.71,382.02h51.22c3.04,0,5.5-2.46,5.5-5.5s-2.46-5.5-5.5-5.5h-51.22c-3.04,0-5.5,2.46-5.5,5.5s2.46,5.5,5.5,5.5Z"/>
      <path class="cls-1" d="M84.27,85.73c-2.94-.75-5.94,1.02-6.7,3.96l-.03.11c-.76,2.94,1.02,5.94,3.96,6.7.46.12.92.17,1.37.17,2.45,0,4.69-1.65,5.32-4.13l.03-.11c.76-2.94-1.02-5.94-3.96-6.7Z"/>
      <path class="cls-1" d="M103.3,108.83c.47.12.94.18,1.4.18,2.44,0,4.67-1.63,5.32-4.1l.03-.11c.77-2.94-.98-5.95-3.92-6.72-2.94-.77-5.95.98-6.72,3.92l-.03.11c-.77,2.94.98,5.95,3.92,6.72Z"/>
      <path class="cls-1" d="M176.19,207.15l.03-.11c.78-2.93-.96-5.95-3.89-6.73-2.94-.79-5.95.96-6.73,3.89l-.03.11c-.78,2.93.96,5.95,3.89,6.73.48.13.95.19,1.42.19,2.43,0,4.65-1.62,5.31-4.08Z"/>
      <path class="cls-1" d="M180.12,221.78l-.03.11c-.75,2.94,1.04,5.94,3.98,6.68.45.11.91.17,1.35.17,2.46,0,4.7-1.66,5.33-4.15l.03-.11c.75-2.94-1.04-5.94-3.98-6.68-2.94-.75-5.94,1.04-6.68,3.98Z"/>
      <path class="cls-1" d="M162.58,259.9l-.03.11c-.75,2.94,1.03,5.94,3.97,6.69.46.12.91.17,1.36.17,2.46,0,4.69-1.66,5.33-4.14l.03-.11c.75-2.94-1.03-5.94-3.97-6.69-2.94-.75-5.94,1.03-6.69,3.97Z"/>
    </g>
  </g>
</svg>