<?xml version="1.0" encoding="UTF-8"?>
<svg id="Layer_2" data-name="Layer 2" xmlns="http://www.w3.org/2000/svg" viewBox="0 0 121.22 171.8">
  <defs>
    <style>
      .cls-1 {
        fill: #d770af;
      }
    </style>
  </defs>
  <g id="Layer_1-2" data-name="Layer 1">
    <g>
      <path class="cls-1" d="M111.19,18.54h-17.02v-2.1c0-3.26-2.65-5.91-5.91-5.91h-15.32l-.08-.47c-1.04-5.83-6.1-10.07-12.03-10.07s-10.99,4.23-12.03,10.07l-.08.47h-15.76c-3.26,0-5.91,2.65-5.91,5.91v2.1H10.03c-5.53,0-10.03,4.5-10.03,10.03v133.21c0,5.53,4.5,10.03,10.03,10.03h101.16c5.53,0,10.03-4.5,10.03-10.03V28.57c0-5.53-4.5-10.03-10.03-10.03ZM30.42,16.44c0-1.4,1.14-2.54,2.54-2.54h17.34c.93,0,1.68-.75,1.68-1.68,0-4.88,3.97-8.85,8.85-8.85s8.85,3.97,8.85,8.85c0,.93.75,1.68,1.68,1.68h16.9c1.4,0,2.54,1.14,2.54,2.54v18.51c0,1.4-1.14,2.54-2.54,2.54h-55.31c-1.4,0-2.54-1.14-2.54-2.54v-18.51ZM32.96,40.86h55.31c3.26,0,5.91-2.65,5.91-5.91v-1.05h11.69v83.64c0,7.25-5.89,13.14-13.14,13.14h-6.56c-.93,0-1.68.75-1.68,1.68v10.9c0,7.25-5.89,13.14-13.14,13.14h-2.62c-.05,0-.1,0-.15.02h-.09s-53.1.01-53.1.01V33.9h11.69v1.05c0,3.26,2.65,5.91,5.91,5.91ZM105.78,127.75l-.25,1.73c-1.64,11.56-9.86,21.48-20.93,25.27l-1.92.66,1.31-1.56c2.48-2.97,3.85-6.72,3.85-10.58v-9.22h4.88c4.5,0,8.71-1.79,11.85-5.05l1.21-1.25ZM117.86,161.77c0,3.67-2.99,6.66-6.66,6.66H10.03c-3.67,0-6.66-2.99-6.66-6.66V28.57c0-3.67,2.99-6.66,6.66-6.66h17.02v8.63h-13.37c-.93,0-1.68.75-1.68,1.68v125.9c0,.93.75,1.68,1.68,1.68h60.79c19.16,0,34.75-15.59,34.75-34.75V32.22c0-.93-.75-1.68-1.68-1.68h-13.37v-8.63h17.02c3.67,0,6.66,2.99,6.66,6.66v133.21Z"/>
      <path class="cls-1" d="M40.52,29.44h40.18c.93,0,1.68-.75,1.68-1.68s-.75-1.68-1.68-1.68h-40.18c-.93,0-1.68.75-1.68,1.68s.75,1.68,1.68,1.68Z"/>
      <path class="cls-1" d="M66.02,61.01l1.66.04c.9,0,1.66-.74,1.68-1.64.01-.45-.15-.88-.46-1.2-.31-.33-.73-.51-1.18-.52l-1.65-.04c-.92,0-1.67.72-1.69,1.64-.02.93.71,1.7,1.64,1.73Z"/>
      <path class="cls-1" d="M77.12,61.05h18.43c.93,0,1.68-.75,1.68-1.68s-.75-1.68-1.68-1.68h-18.43c-.93,0-1.68.75-1.68,1.68s.75,1.68,1.68,1.68Z"/>
      <path class="cls-1" d="M66.02,73.79l1.66.04c.9,0,1.66-.74,1.68-1.64.01-.45-.15-.88-.46-1.2-.31-.33-.73-.51-1.18-.52l-1.68-.04c-.91,0-1.64.72-1.66,1.64-.01.45.15.88.46,1.2.31.33.73.51,1.18.52Z"/>
      <path class="cls-1" d="M77.12,73.83h18.43c.93,0,1.68-.75,1.68-1.68s-.75-1.68-1.68-1.68h-18.43c-.93,0-1.68.75-1.68,1.68s.75,1.68,1.68,1.68Z"/>
      <path class="cls-1" d="M66.02,86.74l1.66.04c.9,0,1.66-.74,1.68-1.64.02-.93-.71-1.7-1.64-1.73l-1.66-.04c-.92,0-1.65.72-1.68,1.64-.01.45.15.88.46,1.2.31.33.73.51,1.18.52Z"/>
      <path class="cls-1" d="M77.12,86.78h18.43c.93,0,1.68-.75,1.68-1.68s-.75-1.68-1.68-1.68h-18.43c-.93,0-1.68.75-1.68,1.68s.75,1.68,1.68,1.68Z"/>
      <path class="cls-1" d="M50.52,136.95l-4.62-17.97c-.19-.74-.86-1.26-1.63-1.26h-17.42c-.93,0-1.68.75-1.68,1.68s.75,1.68,1.68,1.68h16.12l6.91,26.86c.19.74.86,1.26,1.63,1.26h.07c.79-.03,1.46-.62,1.59-1.4l6.84-39.61,1.11-.02,3.38,15.99c.16.77.86,1.33,1.65,1.33h16.75c.93,0,1.68-.75,1.68-1.68s-.75-1.68-1.68-1.68h-15.39l-5.52-26.12c-.16-.76-.84-1.34-1.57-1.34h-.11c-.81.02-1.49.61-1.63,1.4l-7.05,40.82-1.11.04Z"/>
      <path class="cls-1" d="M23.77,62.32v23.58c0,.93.75,1.68,1.68,1.68h23.58c.93,0,1.68-.75,1.68-1.68v-5.02c0-.93-.75-1.68-1.68-1.68s-1.68.75-1.68,1.68v3.33h-20.22v-20.22h15.89c.93,0,1.68-.75,1.68-1.68s-.75-1.68-1.68-1.68h-17.57c-.93,0-1.68.75-1.68,1.68Z"/>
      <path class="cls-1" d="M38.09,70.92c-.32-.32-.74-.49-1.19-.49s-.87.18-1.19.49c-.32.32-.49.74-.49,1.19s.17.87.49,1.19l4.53,4.53c.32.32.74.49,1.19.49s.87-.18,1.19-.49l14.32-14.32c.32-.32.49-.74.49-1.19s-.18-.87-.49-1.19-.74-.49-1.19-.49-.87.18-1.19.49l-13.13,13.13-3.34-3.34Z"/>
    </g>
  </g>
</svg>