<?xml version="1.0" encoding="UTF-8"?>
<svg id="Layer_2" data-name="Layer 2" xmlns="http://www.w3.org/2000/svg" viewBox="0 0 344.32 344.28">
  <defs>
    <style>
      .cls-1 {
        fill: #343f5f;
      }
    </style>
  </defs>
  <g id="_Ñëîé_1" data-name="Ñëîé 1">
    <path class="cls-1" d="M101.11,328.48c-.7,0-1.38-.15-2.02-.45-14.24-6.67-27.51-15.25-39.42-25.52C-12.22,240.54-20.29,131.64,41.67,59.75,74.4,21.78,121.95,0,172.13,0c41.18,0,81.07,14.83,112.3,41.75l.11.09c.96.85,1.52,2.02,1.59,3.3s-.35,2.5-1.21,3.46c-.91,1.02-2.21,1.6-3.57,1.6-1.17,0-2.3-.43-3.18-1.21-11.33-9.78-23.93-17.93-37.46-24.25-21.75-10.16-44.86-15.31-68.68-15.31-62.94,0-120.8,36.83-147.42,93.83-18.37,39.35-20.32,83.5-5.49,124.31s44.67,73.41,84.02,91.78c2.39,1.12,3.42,3.97,2.3,6.36-.78,1.68-2.49,2.76-4.34,2.76h0Z"/>
    <path class="cls-1" d="M171.78,344.28c-16.45,0-32.78-2.38-48.54-7.08-1.22-.37-2.23-1.19-2.83-2.32-.61-1.13-.74-2.42-.37-3.64.6-2.01,2.49-3.41,4.58-3.41.46,0,.93.07,1.38.2,14.86,4.43,30.25,6.68,45.75,6.68h.51c38.98,0,76.69-14.03,106.19-39.51,67.67-58.44,75.31-160.96,17.12-228.77l-.35-.4c-.84-.97-1.25-2.2-1.16-3.47.09-1.27.67-2.44,1.64-3.27.89-.77,2-1.18,3.15-1.18,1.39,0,2.71.6,3.62,1.66,27.02,31.29,41.88,71.28,41.84,112.62-.09,94.78-77.27,171.89-172.05,171.89h-.5Z"/>
    <path class="cls-1" d="M304.93,207.88c-.37,0-.75-.06-1.11-.15-2.57-.61-4.16-3.19-3.57-5.74,2.31-9.78,3.48-19.84,3.47-29.89.04-68.57-51.43-124.95-119.72-131.15-4-.36-8.05-.55-12.05-.55-68.45,0-124.74,51.47-130.93,119.73-.22,2.48-2.27,4.35-4.76,4.35-.14,0-.29,0-.44-.02-2.63-.24-4.57-2.57-4.33-5.19,3.19-35.18,19.31-67.67,45.39-91.5,26.08-23.82,59.89-36.94,95.22-36.94,37.79.02,73.24,14.73,99.89,41.41,26.65,26.68,41.32,62.14,41.3,99.86.01,10.8-1.24,21.6-3.73,32.11-.51,2.16-2.42,3.67-4.63,3.68Z"/>
    <path class="cls-1" d="M171.93,313.24c-35.04,0-68.7-13.03-94.76-36.68-26.22-23.8-42.44-56.34-45.68-91.63-.24-2.62,1.71-4.95,4.33-5.19.15-.01.29-.02.44-.02,2.49,0,4.53,1.87,4.76,4.35,4.33,47.24,33.9,88.64,77.17,108.07,17.11,7.68,35.22,11.57,53.82,11.57,51.79,0,98.95-30.52,120.15-77.76.05-.13.09-.21.13-.3.8-1.65,2.49-2.71,4.31-2.71.72,0,1.42.16,2.08.48,2.37,1.15,3.37,4.01,2.22,6.39-20.85,46.46-65.27,78.19-115.94,82.83-4.33.4-8.72.6-13.05.6Z"/>
    <path class="cls-1" d="M240.31,263.68c-2.64,0-4.78-2.15-4.78-4.78,0-32.96-14.33-73.62-45.8-85.03l-.49-.18-.49.18c-5.34,2-10.94,3.02-16.64,3.02s-11.3-1.02-16.64-3.02l-.49-.18-.49.18c-31.47,11.41-45.8,52.08-45.8,85.03,0,2.64-2.15,4.78-4.78,4.78s-4.78-2.15-4.78-4.78c0-32.7,13.35-73.18,43.17-89.91l1.86-1.04-1.68-1.31c-3.12-2.43-5.93-5.25-8.36-8.36-16.34-20.95-12.59-51.29,8.36-67.63,8.55-6.67,18.78-10.19,29.6-10.19,14.97,0,28.83,6.76,38.03,18.55,7.92,10.15,11.4,22.77,9.83,35.54-1.58,12.77-8.04,24.17-18.19,32.08l-1.68,1.31,1.86,1.04c29.82,16.73,43.17,57.21,43.17,89.91,0,2.64-2.15,4.78-4.78,4.78ZM172.11,90.08c-21.29,0-38.62,17.32-38.62,38.62.02,21.27,17.34,38.6,38.62,38.62,21.29,0,38.62-17.32,38.62-38.62s-17.32-38.62-38.62-38.62Z"/>
  </g>
</svg>