<?xml version="1.0" encoding="UTF-8"?>
<svg id="Layer_2" data-name="Layer 2" xmlns="http://www.w3.org/2000/svg" viewBox="0 0 474.38 457.3">
  <defs>
    <style>
      .cls-1 {
        fill: #343f5f;
      }
    </style>
  </defs>
  <g id="_Ñëîé_1" data-name="Ñëîé 1">
    <path class="cls-1" d="M468.69,445.94h-28.5V173.84c0-3.14-2.54-5.68-5.68-5.68,0,0,0,0-.01,0h-85.21v-49c0-3.13-2.55-5.67-5.68-5.68h-101.95v-12.56c4.36,1.11,8.83,1.71,13.33,1.8,10,0,18.81-2.58,26.91-5,12.76-3.76,24.76-7.3,40.72-1.31,2.94,1.1,6.21-.38,7.32-3.32.24-.64.36-1.32.36-2V9.25c0-2.37-1.46-4.49-3.68-5.32-19.49-7.33-34.62-2.88-47.93,1-12.71,3.76-24.74,7.31-40.72,1.31-2.94-1.1-6.22.4-7.32,3.34-.25.66-.37,1.36-.36,2.07v101.9h-99.52c-3.13,0-5.67,2.55-5.68,5.68v49H39.87c-3.11,0-5.64,2.5-5.68,5.61v272.1H5.69C2.55,445.94,0,448.48,0,451.61c0,3.14,2.53,5.68,5.67,5.69h463.02c3.14,0,5.68-2.53,5.69-5.67,0-3.14-2.53-5.68-5.67-5.69h-.02ZM241.69,19.28c15.87,3.77,28.75,0,40.24-3.41,11.72-3.46,22.87-6.76,37-2.54v70.11c-15.86-3.74-28.72,0-40.25,3.41-11.73,3.46-22.84,6.76-37,2.55V19.28ZM288.69,396.82h-117.11v-69.53h128.79v69.53h-11.68ZM188.97,408.19h94v37.75h-94v-37.75ZM428.85,396.82h-45.58v-13.26h45.56l.02,13.26ZM428.85,340.54h-45.58v-13.25h45.56l.02,13.25ZM428.85,284.27h-45.58v-13.26h45.56l.02,13.26ZM428.85,227.98h-45.58v-13.26h45.56l.02,13.26ZM428.85,179.52v23.84h-51.26c-3.14,0-5.68,2.54-5.68,5.68v24.61c0,3.14,2.54,5.68,5.68,5.68h51.24v20.32h-51.24c-3.14,0-5.68,2.55-5.68,5.69v24.61c0,3.14,2.54,5.69,5.68,5.7h51.24v20.29h-51.24c-3.13,0-5.67,2.55-5.68,5.68v24.63c0,3.13,2.55,5.67,5.68,5.68h51.24v20.29h-51.24c-3.13,0-5.67,2.55-5.68,5.68v24.62c0,3.14,2.54,5.68,5.68,5.69h51.24v37.75h-79.54V179.52h79.56ZM136.46,124.86h201.46v321.08h-43.57v-37.75h11.7c3.14,0,5.68-2.54,5.68-5.68h0v-80.86c0-3.14-2.54-5.68-5.68-5.68h-140.15c-3.14-.02-5.69,2.51-5.71,5.65,0,.01,0,.02,0,.03v80.9c0,3.14,2.53,5.68,5.67,5.69h11.73v37.75h-41.13V124.86ZM45.55,214.72h45.56v13.26h-45.56v-13.26ZM45.55,271.01h45.56v13.26h-45.56v-13.26ZM45.55,327.29h45.56v13.25h-45.56v-13.25ZM45.55,383.56h45.56v13.26h-45.56v-13.26ZM45.55,408.19h51.24c3.14,0,5.68-2.55,5.68-5.69v-24.62c0-3.13-2.55-5.67-5.68-5.68h-51.24v-20.29h51.24c3.13,0,5.67-2.55,5.68-5.68v-24.58c0-3.13-2.55-5.67-5.68-5.68h-51.24v-20.32h51.24c3.13,0,5.67-2.55,5.68-5.68v-24.64c0-3.13-2.55-5.67-5.68-5.68h-51.24v-20.3h51.24c3.14,0,5.68-2.54,5.68-5.68v-24.63c0-3.14-2.54-5.68-5.68-5.68h-51.24v-23.84h79.54v266.42H45.55v-37.75Z"/>
    <path class="cls-1" d="M262.42,57.04h12.2v12.2c.13,3.14,2.78,5.58,5.92,5.45,2.96-.12,5.32-2.49,5.45-5.45v-12.2h12.2c3.15,0,5.7-2.55,5.7-5.69s-2.55-5.69-5.7-5.69h-12.2v-12.17c-.13-3.14-2.78-5.58-5.92-5.45-2.96.12-5.32,2.49-5.45,5.45v12.17h-12.2c-3.14,0-5.68,2.54-5.68,5.68s2.54,5.68,5.68,5.68v.03Z"/>
    <path class="cls-1" d="M165.9,239.34h140.15c3.14,0,5.68-2.54,5.68-5.68v-24.62c0-3.14-2.54-5.68-5.68-5.68h-140.15c-3.14,0-5.68,2.54-5.68,5.68v24.61c0,3.14,2.53,5.68,5.67,5.69h.01ZM171.58,214.72h128.79v13.26h-128.79v-13.26Z"/>
    <path class="cls-1" d="M165.9,295.65h140.15c3.14,0,5.68-2.54,5.68-5.68v-24.64c0-3.14-2.53-5.68-5.67-5.69h-140.16c-3.14,0-5.68,2.54-5.68,5.68,0,0,0,0,0,.01v24.62c-.01,3.14,2.52,5.69,5.66,5.7,0,0,.01,0,.02,0ZM171.58,271.03h128.79v13.26h-128.79v-13.26Z"/>
    <path class="cls-1" d="M165.9,183.07h140.15c3.14,0,5.68-2.54,5.68-5.68h0v-24.63c0-3.14-2.54-5.68-5.68-5.68h-140.15c-3.14,0-5.68,2.54-5.68,5.68v24.62c0,3.14,2.53,5.68,5.67,5.69,0,0,0,0,.01,0ZM171.58,158.44h128.79v13.26h-128.79v-13.26Z"/>
    <path class="cls-1" d="M256.44,356.37h-14.78v-14.78c-.13-3.14-2.78-5.58-5.92-5.45-2.96.12-5.32,2.49-5.45,5.45v14.78h-14.79c-3.14,0-5.68,2.55-5.67,5.69,0,3.13,2.54,5.67,5.67,5.67h14.79v14.79c.13,3.14,2.78,5.58,5.92,5.45,2.96-.12,5.32-2.49,5.45-5.45v-14.79h14.78c3.14,0,5.68-2.53,5.69-5.67,0-3.14-2.53-5.68-5.67-5.69h-.02Z"/>
  </g>
</svg>