<?xml version="1.0" encoding="UTF-8"?>
<svg id="Layer_2" data-name="Layer 2" xmlns="http://www.w3.org/2000/svg" viewBox="0 0 288.37 376.22">
  <defs>
    <style>
      .cls-1 {
        fill: #343f5f;
      }
    </style>
  </defs>
  <g id="_Ñëîé_1" data-name="Ñëîé 1">
    <path class="cls-1" d="M102.45,235.02c-2.69,0-4.87-2.18-4.87-4.87s2.18-4.87,4.87-4.87c3.22,0,5.57-1.01,7.41-3.19,5.25-6.19,6.26-21.79,2.77-42.8-.58-2.63,1.07-5.23,3.7-5.82,2.63-.58,5.23,1.07,5.82,3.7.04.17.07.34.09.52,4.13,24.89,2.47,41.95-4.95,50.69-3.67,4.34-8.8,6.64-14.84,6.64Z"/>
    <path class="cls-1" d="M185.89,235.02c-6.04,0-11.17-2.3-14.85-6.63-7.42-8.77-9.08-25.83-4.95-50.69.44-2.66,2.96-4.45,5.61-4,2.66.44,4.45,2.96,4,5.61-3.49,21-2.48,36.6,2.77,42.8,1.84,2.17,4.2,3.19,7.41,3.19,2.69,0,4.87,2.18,4.87,4.87s-2.18,4.87-4.87,4.87h0Z"/>
    <path class="cls-1" d="M283.47,376.22H4.87c-2.69,0-4.87-2.18-4.87-4.87v-66.52c0-19.73,6.61-38.65,18.62-53.28,12.01-14.63,28.45-23.83,46.24-25.86,2.5-.28,5.01-.42,7.53-.42h30.22c1.6,0,3.09.78,4,2.09l37.58,54.1,37.58-54.1c.91-1.31,2.41-2.09,4-2.09h30.22c2.51,0,5.02.14,7.52.42,17.8,2.02,34.22,11.21,46.24,25.86,12.02,14.65,18.62,33.55,18.62,53.28v66.52c0,2.69-2.18,4.87-4.87,4.87,0,0-.01,0-.02,0ZM9.75,366.47h268.85v-61.64c0-35.95-24.17-65.8-56.21-69.45-2.13-.24-4.28-.36-6.42-.36h-27.66l-40.13,57.77c-1.54,2.21-4.57,2.76-6.78,1.22-.48-.33-.89-.74-1.22-1.22l-40.13-57.77h-27.66c-2.15,0-4.29.12-6.43.36-32.04,3.64-56.2,33.5-56.2,69.45v61.64Z"/>
    <path class="cls-1" d="M63.38,291.9c-2.69,0-4.87-2.18-4.87-4.87v-56.22c0-2.69,2.18-4.87,4.87-4.87s4.87,2.18,4.87,4.87v56.22c0,2.69-2.18,4.87-4.87,4.87Z"/>
    <circle class="cls-1" cx="63.38" cy="306.5" r="24.37"/>
    <g>
      <path class="cls-1" d="M224.96,291.9c-2.69,0-4.87-2.18-4.87-4.87v-56.22c0-2.69,2.18-4.87,4.87-4.87s4.87,2.18,4.87,4.87v56.22c0,2.69-2.18,4.87-4.87,4.87Z"/>
      <path class="cls-1" d="M244.46,330.89c-2.69,0-4.87-2.18-4.87-4.87v-17.44c.05-4.41-1.53-8.68-4.45-11.99-2.56-2.95-6.27-4.66-10.17-4.69-8.06,0-14.62,7.49-14.62,16.69v17.43c0,2.69-2.18,4.87-4.87,4.87s-4.87-2.18-4.87-4.87v-17.44c0-14.58,10.93-26.44,24.37-26.44,6.67.03,13,2.91,17.41,7.92,4.54,5.1,7.02,11.7,6.97,18.52v17.44c0,2.69-2.18,4.87-4.87,4.87Z"/>
      <path class="cls-1" d="M102.45,296.57c-2.69,0-4.87-2.18-4.87-4.87v-61.55c0-2.69,2.18-4.87,4.87-4.87s4.87,2.18,4.87,4.87v53.29l23.78-13.12c2.36-1.3,5.32-.44,6.62,1.92,1.3,2.36.44,5.32-1.92,6.62h0l-31,17.11c-.72.4-1.53.6-2.35.6Z"/>
      <path class="cls-1" d="M185.89,296.57c-.82,0-1.63-.21-2.35-.6l-31-17.11c-2.36-1.3-3.22-4.27-1.92-6.62,1.3-2.36,4.27-3.22,6.62-1.92l23.78,13.12v-53.29c0-2.69,2.18-4.87,4.87-4.87s4.87,2.18,4.87,4.87v61.55c0,2.69-2.18,4.87-4.87,4.87h0Z"/>
      <path class="cls-1" d="M144.17,188.38h-.11c-14.52-.34-26.81-3.5-36.49-9.41-11.6-7.07-19.6-18.03-23.77-32.66-10.24-35.81-3.7-60.75-2.92-63.52.61-2.85,4.87-20.19,17.67-20.96h91.24c12.78.75,17.06,18.09,17.67,20.96.79,2.77,7.31,27.71-2.92,63.52-4.17,14.59-12.19,25.57-23.77,32.66-9.7,5.91-21.98,9.08-36.49,9.41h-.11ZM93.17,143.64c6.53,22.87,23.22,34.31,51,34.99,27.78-.67,44.46-12.12,51-34.99,9.79-34.25,2.96-58,2.89-58.25-.04-.13-.08-.27-.1-.41-.85-4.05-4.2-12.97-8.64-13.38h-90.3c-4.47.41-7.8,9.33-8.63,13.38-.03.14-.07.28-.11.42-.06.22-6.89,23.99,2.9,58.24Z"/>
      <path class="cls-1" d="M202.66,138.36c-.25,0-.5-.02-.74-.05l-57.75-8.82-57.74,8.84c-2.65.45-5.17-1.33-5.63-3.98-.45-2.65,1.33-5.17,3.98-5.63.06-.01.12-.02.19-.03l58.49-8.95c.48-.07.98-.07,1.46,0l58.49,8.95c2.65.46,4.43,2.99,3.97,5.64-.4,2.3-2.38,4-4.72,4.04h0Z"/>
      <path class="cls-1" d="M45.99,210.94c-5.14.02-9.97-2.42-13.01-6.57-3.4-4.51-3.92-10.57-1.34-15.6.26-.53.58-1.11.95-1.72,1.14-1.89,2.63-3.54,4.39-4.87l.12-.1c19.16-14.91,28.11-34.75,26.62-58.98-.72-3.21-4.96-23.27-3.44-45.72,2.2-32.61,15.63-54.38,38.85-63,5.34-3.42,10.97-6.35,16.83-8.77h.04l.21-.08c17.92-7.38,38.02-7.38,55.94,0l.21.08h.04c5.86,2.42,11.49,5.36,16.83,8.77,23.22,8.62,36.64,30.39,38.85,63,1.52,22.45-2.72,42.51-3.44,45.72-1.49,24.22,7.46,44.06,26.62,58.98l.12.1c1.76,1.33,3.25,2.99,4.39,4.87.37.61.69,1.19.97,1.76,2.57,5.02,2.04,11.06-1.36,15.56-3.62,4.91-9.7,7.36-15.71,6.34-18.3-2.98-46.95-18.52-62.56-33.94-1.95-1.86-2.01-4.95-.15-6.89,1.86-1.95,4.95-2.01,6.89-.15.04.04.08.07.11.11,15.66,15.48,42.75,28.89,57.27,31.25,2.39.42,4.82-.54,6.27-2.49,1.2-1.57,1.39-3.69.49-5.44-.19-.37-.38-.72-.61-1.11v-.05c-.52-.84-1.2-1.57-1.99-2.15l-.12-.1c-7.39-5.56-13.75-12.38-18.78-20.14-8.84-13.79-12.73-29.79-11.56-47.56.02-.27.06-.54.12-.8.05-.2,4.84-20.89,3.29-43.44-2.02-28.99-13.1-47.32-32.96-54.49l-.14-.05c-.14-.05-.28-.12-.41-.19-.21-.1-.4-.22-.59-.35-4.92-3.19-10.13-5.91-15.56-8.14l-.18-.07-.07-.03c-15.54-6.4-32.98-6.4-48.52,0l-.07.03-.18.07c-5.43,2.23-10.64,4.96-15.56,8.15-.19.13-.38.24-.58.34-.13.07-.27.13-.41.19l-.14.05c-48.15,17.34-29.86,97.11-29.67,97.92.06.26.1.53.12.8,1.17,17.77-2.72,33.77-11.56,47.56-5.03,7.76-11.38,14.58-18.78,20.14l-.12.1c-.79.59-1.47,1.32-1.99,2.15v.05c-.23.39-.43.74-.59,1.07-.91,1.77-.72,3.9.49,5.48,1.45,1.95,3.88,2.91,6.27,2.49,14.52-2.36,41.61-15.78,57.27-31.25,1.88-1.92,4.97-1.96,6.89-.07,1.92,1.88,1.96,4.97.07,6.89-.04.04-.08.08-.11.11-15.6,15.42-44.25,30.97-62.55,33.94-.9.15-1.81.23-2.72.24h0Z"/>
    </g>
  </g>
</svg>