<?xml version="1.0" encoding="UTF-8"?>
<svg id="Layer_2" data-name="Layer 2" xmlns="http://www.w3.org/2000/svg" viewBox="0 0 475.46 475.46">
  <defs>
    <style>
      .cls-1 {
        fill: #d770af;
      }
    </style>
  </defs>
  <g id="Layer_1-2" data-name="Layer 1">
    <g>
      <path class="cls-1" d="M357.73,475.46c-1.19,0-2.33-.37-3.3-1.08l-44.98-32.18c-24.67-17.53-43.96-41.51-55.79-69.36l-.59-1.38h-111.34c-11.94-.04-21.7-9.79-21.73-21.74v-31.99c.04-11.95,9.79-21.7,21.74-21.73h2.26v-20.53h-2.26c-11.95-.04-21.7-9.79-21.74-21.75v-31.99c.04-11.94,9.79-21.7,21.74-21.73h2.26v-9.53l-3.15,1.33c-18.43,7.8-37.92,11.75-57.93,11.75-1.7,0-3.42-.03-5.11-.09-38.71,0-77.81-10.21-77.81-29.73V29.73C0,10.21,39.1,0,77.73,0s77.73,10.21,77.73,29.73v74.27h178.27c11.95.04,21.7,9.79,21.73,21.74v31.99c-.02,7.14-3.54,13.83-9.42,17.89l2.18,3.95,7.28-3.12c.72-.32,1.46-.48,2.23-.48s1.5.16,2.2.47l112.02,48.01c2.13.9,3.5,2.97,3.51,5.28v77.68c-.03,53.39-26,103.78-69.45,134.79l-44.96,32.16c-.99.72-2.13,1.1-3.32,1.1ZM303.96,211.01l-52.49,22.51v73.9c-.05,19.33,3.56,38.24,10.72,56.2,10.82,27.96,29.47,51.94,53.91,69.33l41.63,29.74,41.64-29.74c40.39-28.92,64.55-75.84,64.63-125.52v-73.9l-106.27-45.53-53.27,22.84-.51.18ZM141.73,307.46c-5.66,0-10.27,4.61-10.27,10.27v32c0,5.66,4.61,10.27,10.27,10.27h107.03l-.95-2.96c-4.9-15.32-7.5-31.25-7.73-47.34l-.03-2.24h-98.32ZM187.46,296h52.54v-20.54h-52.54v20.54ZM155.46,296h20.54v-20.54h-20.54v20.54ZM141.73,211.46c-5.66,0-10.27,4.61-10.27,10.27v32c0,5.66,4.61,10.27,10.27,10.27h98.27v-34.27c0-2.3,1.37-4.37,3.5-5.27l20.17-8.64-.89-4.35h-121.04ZM299.46,200.46l20.54-8.83v-12.16h-20.54v20.99ZM187.46,200h100.54v-20.54h-100.54v20.54ZM155.46,200h20.54v-20.54h-20.54v20.54ZM11.46,173.73c0,7.27,26.43,18.27,66.27,18.27,1.62.06,3.35.09,5.06.09,17.72,0,35.06-3.31,51.54-9.85l5.57-2.21-5.64-2.03c-8.52-3.07-14.25-11.22-14.26-20.27v-6.69l-2.72.56c-12.61,2.57-25.53,3.88-38.4,3.88h-1.13c-1.79.06-3.51.09-5.2.09-20.01,0-39.5-3.95-57.93-11.75l-3.15-1.33v31.26ZM331.46,181.73v5.05l7.97-3.45-1.36-4.3c-1.39.29-2.82.43-4.24.43h-2.27l-.1,2.27ZM141.73,115.46c-5.66,0-10.27,4.61-10.27,10.27v32c0,5.66,4.61,10.27,10.27,10.27h192c5.66,0,10.27-4.61,10.27-10.27v-32c0-5.66-4.61-10.27-10.27-10.27h-192ZM11.46,125.73c0,7.27,26.43,18.27,66.27,18.27h1.22c13.2,0,26.42-1.5,39.29-4.46l1.76-.4v-13.4c.04-11.94,9.79-21.7,21.74-21.73h2.26v-9.53l-3.15,1.33c-18.43,7.8-37.92,11.75-57.93,11.75-1.7,0-3.42-.03-5.11-.09h-.16c-1.7.06-3.42.09-5.11.09-20.01,0-39.5-3.95-57.93-11.75l-3.15-1.33v31.26ZM11.46,77.73c0,7.27,26.43,18.27,66.27,18.27s66.27-11,66.27-18.27v-31.26l-3.15,1.33c-18.43,7.8-37.92,11.75-57.93,11.75-1.7,0-3.42-.03-5.11-.09h-.16c-1.7.06-3.42.09-5.11.09-20.01,0-39.5-3.95-57.93-11.75l-3.15-1.33v31.26ZM77.73,11.46C37.9,11.46,11.46,22.46,11.46,29.73s26.43,18.27,66.27,18.27,66.27-11,66.27-18.27-26.43-18.27-66.27-18.27Z"/>
      <path class="cls-1" d="M341.73,347.46c-1.04,0-2.06-.28-2.95-.82l-38.06-22.83,5.9-9.82,34,20.4,67.32-74.81,8.52,7.67-70.48,78.32c-1.08,1.2-2.64,1.9-4.26,1.9Z"/>
      <rect class="cls-1" x="72" y="72" width="11.46" height="11.46"/>
      <rect class="cls-1" x="72" y="120" width="11.46" height="11.46"/>
      <rect class="cls-1" x="72" y="168" width="11.46" height="11.46"/>
      <rect class="cls-1" x="152" y="232" width="11.46" height="11.46"/>
      <rect class="cls-1" x="184" y="232" width="11.46" height="11.46"/>
      <rect class="cls-1" x="216" y="232" width="11.46" height="11.46"/>
      <rect class="cls-1" x="152" y="136" width="11.46" height="11.46"/>
      <rect class="cls-1" x="184" y="136" width="11.46" height="11.46"/>
      <rect class="cls-1" x="216" y="136" width="11.46" height="11.46"/>
      <rect class="cls-1" x="152" y="328" width="11.46" height="11.46"/>
      <rect class="cls-1" x="184" y="328" width="11.46" height="11.46"/>
      <rect class="cls-1" x="216" y="328" width="11.46" height="11.46"/>
      <rect class="cls-1" x="176" y="32" width="11.46" height="11.46"/>
      <path class="cls-1" d="M232,83.46v-40h-24v-11.46h29.73c3.16,0,5.73,2.57,5.73,5.73v45.73h-11.46Z"/>
      <rect class="cls-1" x="72" y="224" width="11.46" height="11.46"/>
      <path class="cls-1" d="M77.73,347.46c-3.16,0-5.73-2.57-5.73-5.73v-85.73h11.46v80h16v11.46h-21.73Z"/>
    </g>
  </g>
</svg>