<?xml version="1.0" encoding="UTF-8"?>
<svg id="Layer_2" data-name="Layer 2" xmlns="http://www.w3.org/2000/svg" viewBox="0 0 409.6 409.6">
  <defs>
    <style>
      .cls-1 {
        fill: #d770af;
      }
    </style>
  </defs>
  <g id="Layer_1-2" data-name="Layer 1">
    <path class="cls-1" d="M351.04,282.49v-52.73c0-2.83-2.29-5.12-5.12-5.12h-136v-19.34c54.29-2.69,97.66-47.57,97.66-102.52S261.47,0,204.8,0s-102.78,46.11-102.78,102.78,43.37,99.82,97.66,102.52v19.34H63.68c-2.83,0-5.12,2.29-5.12,5.12v52.73c-32.72,2.62-58.56,30.04-58.56,63.42,0,35.11,28.57,63.68,63.68,63.68s63.68-28.57,63.68-63.68-25.84-60.8-58.56-63.42v-47.61h130.88v47.61c-32.72,2.62-58.56,30.04-58.56,63.42,0,35.11,28.57,63.68,63.68,63.68s63.68-28.57,63.68-63.68-25.84-60.8-58.56-63.42v-47.61h130.88v47.61c-32.72,2.62-58.56,30.04-58.56,63.42,0,35.11,28.57,63.68,63.68,63.68s63.68-28.57,63.68-63.68-25.84-60.8-58.56-63.42ZM112.26,102.78c0-51.03,41.51-92.54,92.54-92.54s92.54,41.51,92.54,92.54-41.51,92.54-92.54,92.54-92.54-41.51-92.54-92.54ZM31.91,388.79c.64-13.48,9.46-25.02,22.49-28.97,1.97-.6,3.39-2.33,3.6-4.38s-.83-4.03-2.64-5.02c-6.11-3.33-9.91-9.72-9.91-16.67,0-10.46,8.51-18.96,18.96-18.96s18.97,8.51,18.97,18.96c0,7.16-3.98,13.63-10.39,16.89-1.84.94-2.94,2.89-2.78,4.95.15,2.06,1.53,3.82,3.49,4.47,12.58,4.17,21.11,15.6,21.75,28.72-8.89,6.61-19.86,10.57-31.77,10.57s-22.88-3.96-31.77-10.57ZM117.12,345.92c0,13.08-4.74,25.06-12.57,34.36-2.68-10.91-9.58-20.34-19.26-26.11,5.27-5.36,8.32-12.62,8.32-20.42,0-16.1-13.1-29.2-29.21-29.2s-29.2,13.1-29.2,29.2c0,7.48,2.85,14.53,7.78,19.85-10.2,5.7-17.44,15.35-20.18,26.67-7.83-9.3-12.57-21.28-12.57-34.36,0-29.47,23.97-53.44,53.44-53.44s53.44,23.97,53.44,53.44ZM173.03,388.79c.64-13.48,9.46-25.02,22.49-28.97,1.97-.6,3.39-2.33,3.6-4.38s-.83-4.03-2.64-5.02c-6.11-3.33-9.91-9.72-9.91-16.67,0-10.46,8.51-18.96,18.96-18.96s18.97,8.51,18.97,18.96c0,7.16-3.98,13.63-10.39,16.89-1.84.94-2.94,2.89-2.78,4.95.15,2.06,1.53,3.82,3.49,4.47,12.58,4.17,21.11,15.6,21.75,28.72-8.89,6.61-19.86,10.57-31.77,10.57s-22.88-3.96-31.77-10.57ZM258.24,345.92c0,13.08-4.74,25.06-12.57,34.36-2.68-10.91-9.58-20.34-19.26-26.11,5.27-5.36,8.32-12.62,8.32-20.42,0-16.1-13.1-29.2-29.21-29.2s-29.2,13.1-29.2,29.2c0,7.48,2.85,14.53,7.78,19.85-10.19,5.7-17.44,15.35-20.18,26.67-7.83-9.3-12.57-21.28-12.57-34.36,0-29.47,23.97-53.44,53.44-53.44s53.44,23.97,53.44,53.44ZM314.15,388.79c.64-13.48,9.46-25.02,22.49-28.97,1.97-.6,3.39-2.33,3.6-4.38s-.83-4.03-2.64-5.02c-6.11-3.33-9.91-9.72-9.91-16.67,0-10.46,8.51-18.96,18.96-18.96s18.97,8.51,18.97,18.96c0,7.16-3.98,13.63-10.39,16.89-1.84.94-2.94,2.89-2.78,4.95.15,2.06,1.53,3.82,3.49,4.47,12.58,4.17,21.11,15.6,21.75,28.72-8.89,6.61-19.86,10.57-31.77,10.57s-22.88-3.96-31.77-10.57ZM386.79,380.28c-2.68-10.91-9.58-20.34-19.26-26.11,5.27-5.36,8.32-12.62,8.32-20.42,0-16.1-13.1-29.2-29.21-29.2s-29.2,13.1-29.2,29.2c0,7.48,2.85,14.53,7.78,19.85-10.19,5.7-17.44,15.35-20.18,26.67-7.83-9.3-12.57-21.28-12.57-34.36,0-29.47,23.97-53.44,53.44-53.44s53.44,23.97,53.44,53.44c0,13.08-4.74,25.06-12.57,34.36Z"/>
    <path class="cls-1" d="M232.71,157.36v-26.67h26.67c2.83,0,5.12-2.29,5.12-5.12v-45.58c0-2.83-2.29-5.12-5.12-5.12h-26.67v-26.67c0-2.83-2.29-5.12-5.12-5.12h-45.58c-2.83,0-5.12,2.29-5.12,5.12v26.67h-26.67c-2.83,0-5.12,2.29-5.12,5.12v45.58c0,2.83,2.29,5.12,5.12,5.12h26.67v26.67c0,2.83,2.29,5.12,5.12,5.12h45.58c2.83,0,5.12-2.29,5.12-5.12ZM222.47,125.57v26.67h-35.34v-26.67c0-2.83-2.29-5.12-5.12-5.12h-26.67v-35.34h26.67c2.83,0,5.12-2.29,5.12-5.12v-26.67h35.34v26.67c0,2.83,2.29,5.12,5.12,5.12h26.67v35.34h-26.67c-2.83,0-5.12,2.29-5.12,5.12Z"/>
  </g>
</svg>